#!OML:ASF G:\JayActor3\Patient Classification 1\Patient 1\Session 5\male.ASF
:FULLY-SPECIFIED
:DEGREES
802
root 3.65148 16.9332 -6.88438 371.995 -88.2601 -16.3966
lowerback 0.0890977 -1.00963 0.187114
upperback 1.08478 -1.35652 0.420252
thorax 1.06592 -0.680838 0.313676
lowerneck -5.60627 -1.69172 1.22464
upperneck 2.05071 -2.38936 1.07491
head 1.58046 -1.16108 0.0561637
rclavicle -7.32087e-015 -3.37934e-015
rhumerus 5.51412 -14.9539 -25.3138
rradius 23.3699
rwrist 11.8736
rhand -9.55093 -11.9974
rfingers 7.12502
rthumb 16.4161 -41.3228
lclavicle -7.32087e-015 -3.37934e-015
lhumerus 0.424708 -4.40709 20.4629
lradius 29.3889
lwrist 15.3276
lhand -14.942 32.9967
lfingers 7.12502
lthumb 11.2207 62.6766
rfemur -1.20664 -0.650923 17.6659
rtibia 30.6285
rfoot -30.1158 -19.3867
rtoes 10.5973
lfemur 8.25467 5.68715 -14.1516
ltibia 6.80154
lfoot -10.3519 14.9265
ltoes 3.94276
803
root 3.65306 16.933 -6.8843 371.395 -88.227 -15.8141
lowerback 0.0969447 -1.0158 0.194054
upperback 1.08664 -1.36479 0.420218
thorax 1.06331 -0.684927 0.309819
lowerneck -5.60891 -1.69449 1.22616
upperneck 2.08262 -2.3935 1.07373
head 1.59119 -1.16281 0.0551944
rclavicle 5.23363e-015 -1.98785e-016
rhumerus 5.51055 -14.9779 -25.3037
rradius 23.3602
rwrist 11.8765
rhand -9.55314 -11.9953
rfingers 7.12502
rthumb 16.4139 -41.3208
lclavicle 5.23363e-015 -1.98785e-016
lhumerus 0.456078 -4.3891 20.4702
lradius 29.3617
lwrist 15.3352
lhand -14.9476 33.0131
lfingers 7.12502
lthumb 11.2153 62.6933
rfemur -1.1823 -0.652932 17.661
rtibia 30.624
rfoot -30.1445 -19.4054
rtoes 10.6253
lfemur 8.26438 5.64983 -14.1632
ltibia 6.79277
lfoot -10.3404 14.9391
ltoes 3.92698
804
root 3.65465 16.9329 -6.88418 370.861 -88.1945 -15.2982
lowerback 0.105238 -1.02152 0.201144
upperback 1.08842 -1.37246 0.420692
thorax 1.06036 -0.688715 0.306417
lowerneck -5.61205 -1.69724 1.22774
upperneck 2.11263 -2.39758 1.07192
head 1.60138 -1.16453 0.0540299
rclavicle -1.74558e-015 -2.38542e-015
rhumerus 5.50645 -15.0026 -25.2927
rradius 23.3518
rwrist 11.8778
rhand -9.554 -11.9927
rfingers 7.12502
rthumb 16.4131 -41.3184
lclavicle -1.74558e-015 -2.38542e-015
lhumerus 0.488556 -4.3708 20.4755
lradius 29.3348
lwrist 15.3425
lhand -14.9497 33.0225
lfingers 7.12502
lthumb 11.2133 62.7028
rfemur -1.15911 -0.654594 17.6571
rtibia 30.6199
rfoot -30.1715 -19.4244
rtoes 10.651
lfemur 8.27181 5.61353 -14.1735
ltibia 6.78737
lfoot -10.3301 14.9511
ltoes 3.91078
805
root 3.65628 16.9328 -6.88404 370.358 -88.1627 -14.8105
lowerback 0.113796 -1.02692 0.207055
upperback 1.08978 -1.3797 0.421486
thorax 1.05686 -0.692302 0.304016
lowerneck -5.61493 -1.69994 1.22922
upperneck 2.14016 -2.40155 1.06966
head 1.61073 -1.16624 0.052762
rclavicle 2.14625e-014 -7.85199e-015
rhumerus 5.50248 -15.0278 -25.2812
rradius 23.3442
rwrist 11.8777
rhand -9.55371 -11.9895
rfingers 7.12502
rthumb 16.4134 -41.3151
lclavicle 2.14625e-014 -7.85199e-015
lhumerus 0.521435 -4.3519 20.4792
lradius 29.3088
lwrist 15.3502
lhand -14.9516 33.0329
lfingers 7.12502
lthumb 11.2115 62.7133
rfemur -1.13787 -0.658167 17.6526
rtibia 30.6162
rfoot -30.1958 -19.4416
rtoes 10.6751
lfemur 8.2762 5.57836 -14.184
ltibia 6.78542
lfoot -10.3212 14.9622
ltoes 3.89539
806
root 3.65795 16.9326 -6.88386 369.939 -88.1318 -14.4073
lowerback 0.122956 -1.03194 0.21371
upperback 1.09111 -1.38644 0.423098
thorax 1.05299 -0.695636 0.302054
lowerneck -5.6182 -1.7024 1.23052
upperneck 2.16568 -2.40516 1.06711
head 1.6195 -1.1678 0.0514509
rclavicle 4.31114e-015 -1.59028e-015
rhumerus 5.49865 -15.054 -25.2693
rradius 23.3379
rwrist 11.8773
rhand -9.55238 -11.9857
rfingers 7.12502
rthumb 16.4147 -41.3112
lclavicle 4.31114e-015 -1.59028e-015
lhumerus 0.554569 -4.33424 20.4804
lradius 29.2849
lwrist 15.3607
lhand -14.952 33.0454
lfingers 7.12502
lthumb 11.211 62.7259
rfemur -1.11764 -0.662013 17.6498
rtibia 30.6126
rfoot -30.2188 -19.4578
rtoes 10.699
lfemur 8.27836 5.54452 -14.1923
ltibia 6.78711
lfoot -10.3141 14.9726
ltoes 3.8816
807
root 3.65964 16.9325 -6.88365 369.563 -88.1017 -14.0467
lowerback 0.132677 -1.03658 0.219961
upperback 1.09194 -1.39266 0.425113
thorax 1.04832 -0.698719 0.300754
lowerneck -5.62079 -1.70479 1.23211
upperneck 2.18861 -2.40863 1.06374
head 1.6273 -1.16933 0.0498624
rclavicle 1.0548e-014 9.93923e-016
rhumerus 5.49469 -15.08 -25.257
rradius 23.3327
rwrist 11.8756
rhand -9.55069 -11.9823
rfingers 7.12502
rthumb 16.4163 -41.3077
lclavicle 1.0548e-014 9.93923e-016
lhumerus 0.587909 -4.31667 20.4799
lradius 29.2623
lwrist 15.3716
lhand -14.9532 33.0558
lfingers 7.12502
lthumb 11.2098 62.7363
rfemur -1.09901 -0.667037 17.6472
rtibia 30.6091
rfoot -30.239 -19.4733
rtoes 10.7201
lfemur 8.27719 5.51196 -14.2001
ltibia 6.79335
lfoot -10.3093 14.982
ltoes 3.86979
808
root 3.66137 16.9324 -6.88341 369.253 -88.0727 -13.7516
lowerback 0.143038 -1.04066 0.226864
upperback 1.09255 -1.39815 0.427668
thorax 1.04306 -0.701433 0.299664
lowerneck -5.62346 -1.70705 1.2335
upperneck 2.20935 -2.41188 1.06045
head 1.63441 -1.17078 0.0483503
rclavicle -7.9576e-015 9.93923e-015
rhumerus 5.49009 -15.1055 -25.244
rradius 23.3291
rwrist 11.873
rhand -9.54873 -11.9791
rfingers 7.12502
rthumb 16.4182 -41.3043
lclavicle -7.9576e-015 9.93923e-015
lhumerus 0.622069 -4.29755 20.4777
lradius 29.2404
lwrist 15.379
lhand -14.9492 33.0619
lfingers 7.12502
lthumb 11.2137 62.7422
rfemur -1.08157 -0.671539 17.646
rtibia 30.6056
rfoot -30.2581 -19.4886
rtoes 10.7405
lfemur 8.27366 5.48084 -14.2063
ltibia 6.80315
lfoot -10.3059 14.9907
ltoes 3.85772
809
root 3.66311 16.9323 -6.88314 369.008 -88.0448 -13.5201
lowerback 0.153852 -1.04436 0.234324
upperback 1.09296 -1.40313 0.430829
thorax 1.03734 -0.703889 0.298899
lowerneck -5.62587 -1.70902 1.23463
upperneck 2.22789 -2.4147 1.05726
head 1.64077 -1.17204 0.0469405
rclavicle -4.46023e-015 -3.27995e-015
rhumerus 5.48537 -15.1292 -25.2303
rradius 23.3275
rwrist 11.8686
rhand -9.54612 -11.976
rfingers 7.12502
rthumb 16.4207 -41.301
lclavicle -4.46023e-015 -3.27995e-015
lhumerus 0.656308 -4.27646 20.4739
lradius 29.2195
lwrist 15.3839
lhand -14.9425 33.0642
lfingers 7.12502
lthumb 11.2203 62.7442
rfemur -1.06522 -0.675591 17.6465
rtibia 30.6022
rfoot -30.2757 -19.5036
rtoes 10.7597
lfemur 8.2682 5.45123 -14.2108
ltibia 6.81564
lfoot -10.3039 14.9987
ltoes 3.84728
810
root 3.66487 16.9322 -6.88281 368.752 -88.0181 -13.2773
lowerback 0.165045 -1.04771 0.240374
upperback 1.09326 -1.40762 0.433782
thorax 1.03132 -0.706117 0.298726
lowerneck -5.62777 -1.71086 1.23597
upperneck 2.24363 -2.41729 1.05343
head 1.64613 -1.17323 0.0453257
rclavicle 4.43538e-015 -1.19271e-015
rhumerus 5.48062 -15.1533 -25.2167
rradius 23.3276
rwrist 11.8643
rhand -9.54369 -11.9725
rfingers 7.12502
rthumb 16.423 -41.2973
lclavicle 4.43538e-015 -1.19271e-015
lhumerus 0.69015 -4.26073 20.4684
lradius 29.2053
lwrist 15.3995
lhand -14.9423 33.0854
lfingers 7.12502
lthumb 11.2204 62.7653
rfemur -1.04997 -0.680589 17.6453
rtibia 30.5989
rfoot -30.2914 -19.5171
rtoes 10.7779
lfemur 8.26088 5.42287 -14.2165
ltibia 6.83084
lfoot -10.3038 15.006
ltoes 3.8392
811
root 3.66664 16.9321 -6.88243 368.54 -87.9926 -13.0781
lowerback 0.176227 -1.05054 0.246877
upperback 1.09347 -1.41144 0.436975
thorax 1.0252 -0.708 0.298551
lowerneck -5.62974 -1.71255 1.2374
upperneck 2.25757 -2.41968 1.0497
head 1.65092 -1.17433 0.0437433
rclavicle -3.41661e-016 -9.93923e-017
rhumerus 5.47569 -15.1775 -25.2032
rradius 23.3295
rwrist 11.8592
rhand -9.54117 -11.9697
rfingers 7.12502
rthumb 16.4254 -41.2943
lclavicle -3.41661e-016 -9.93923e-017
lhumerus 0.724135 -4.24615 20.4613
lradius 29.1943
lwrist 15.4176
lhand -14.9426 33.1065
lfingers 7.12502
lthumb 11.2201 62.7864
rfemur -1.03603 -0.685546 17.6447
rtibia 30.5957
rfoot -30.3056 -19.5304
rtoes 10.7939
lfemur 8.25212 5.39602 -14.2214
ltibia 6.84786
lfoot -10.3044 15.0129
ltoes 3.8299
812
root 3.66841 16.9321 -6.882 368.354 -87.9684 -12.9049
lowerback 0.187598 -1.05306 0.253119
upperback 1.09356 -1.41482 0.440404
thorax 1.01887 -0.709672 0.298773
lowerneck -5.63107 -1.71398 1.23875
upperneck 2.26926 -2.42169 1.04589
head 1.65486 -1.17527 0.0421815
rclavicle -1.98971e-014 -9.93923e-017
rhumerus 5.47067 -15.2005 -25.1896
rradius 23.3337
rwrist 11.851
rhand -9.53863 -11.9668
rfingers 7.12502
rthumb 16.4279 -41.2912
lclavicle -1.98971e-014 -9.93923e-017
lhumerus 0.757557 -4.23194 20.453
lradius 29.1866
lwrist 15.4367
lhand -14.9424 33.1284
lfingers 7.12502
lthumb 11.2203 62.8083
rfemur -1.02313 -0.690651 17.6443
rtibia 30.5929
rfoot -30.3186 -19.5426
rtoes 10.8096
lfemur 8.24292 5.37057 -14.2257
ltibia 6.86516
lfoot -10.3044 15.0198
ltoes 3.81792
